<svg width="26" height="26" viewBox="0 0 26 26" fill="none" xmlns="http://www.w3.org/2000/svg">
<path d="M16.4937 20.735C13.9587 20.735 11.2287 18.525 9.37624 16.705C7.78374 15.145 5.21624 12.1225 5.28124 9.42501C5.31374 8.28751 5.80124 7.34501 6.71124 6.56501C7.75124 5.68751 8.56374 5.26501 9.27874 5.26501C10.2862 5.26501 10.8387 6.04501 11.1962 6.56501C11.5212 7.05251 12.3337 8.25501 12.6587 8.87251C13.1787 9.84751 12.9187 10.725 11.9112 11.505C11.8462 11.5375 11.8462 11.57 11.8137 11.6025C11.7812 11.895 12.4962 12.61 12.8212 12.9025L13.1462 13.2275C13.4712 13.5525 14.1212 14.235 14.4462 14.235C14.4787 14.235 14.5437 14.17 14.5437 14.1375C15.0637 13.455 15.6162 13.13 16.2337 13.13C16.6237 13.13 16.9487 13.26 17.1762 13.39C17.7937 13.715 18.9962 14.5275 19.4837 14.8525C19.9387 15.1775 20.6537 15.665 20.7837 16.51C20.8812 17.29 20.4912 18.1675 19.5162 19.3375C18.6712 20.28 17.6637 20.735 16.4937 20.735ZM9.31124 6.59751C9.11624 6.59751 8.62874 6.72751 7.62124 7.57251C7.00374 8.09251 6.67874 8.71001 6.64624 9.45751C6.58124 11.0825 7.91374 13.3575 10.2862 15.73C12.5937 18.0375 14.8362 19.37 16.4612 19.37C17.2412 19.37 17.9237 19.045 18.4762 18.395C19.3862 17.3225 19.4837 16.835 19.4512 16.64C19.4187 16.4125 19.1912 16.2175 18.7362 15.925C18.3787 15.665 17.1437 14.8525 16.5587 14.5275C16.4612 14.4625 16.3637 14.43 16.2662 14.43C16.1037 14.43 15.8762 14.5925 15.6487 14.9175C15.2587 15.4375 14.8037 15.535 14.4787 15.535C13.6012 15.535 12.8212 14.755 12.2037 14.1375L11.9112 13.845C11.2612 13.195 10.4487 12.415 10.5137 11.505C10.5462 11.2125 10.6437 10.79 11.1312 10.4325C11.7487 9.97751 11.6512 9.78251 11.5212 9.52251C11.1962 8.93751 10.3837 7.70251 10.1237 7.34501C9.73374 6.79251 9.53874 6.59751 9.31124 6.59751Z" fill="#42446E"/>
</svg>
